<svg width="37" height="36" viewBox="0 0 37 36" fill="none" xmlns="http://www.w3.org/2000/svg">
<g clip-path="url(#clip0_115_372)">
<path d="M8.35568 11.8961V35.6168H0.45674V11.8961H8.35568ZM8.85834 4.5716C8.87429 5.73649 8.47137 6.7099 7.64956 7.49181C6.82775 8.27373 5.74663 8.66469 4.40621 8.66469H4.35834C3.04983 8.66469 1.99663 8.27373 1.19876 7.49181C0.400889 6.7099 0.00195312 5.73649 0.00195312 4.5716C0.00195312 3.39075 0.412857 2.41336 1.23467 1.63942C2.05647 0.865484 3.12961 0.478516 4.45408 0.478516C5.77855 0.478516 6.83972 0.865484 7.63759 1.63942C8.43546 2.41336 8.84238 3.39075 8.85834 4.5716ZM36.7679 22.0211V35.6168H28.8929V22.9306C28.8929 21.2551 28.5698 19.9426 27.9235 18.9931C27.2772 18.0437 26.2679 17.5689 24.8956 17.5689C23.8903 17.5689 23.0485 17.8442 22.3703 18.3947C21.6921 18.9453 21.1855 19.6275 20.8504 20.4413C20.6748 20.92 20.5871 21.5663 20.5871 22.3801V35.6168H12.7121C12.744 29.2498 12.7599 24.0876 12.7599 20.1301C12.7599 16.1727 12.752 13.811 12.736 13.045L12.7121 11.8961H20.5871V15.3429H20.5392C20.8583 14.8322 21.1855 14.3854 21.5206 14.0025C21.8557 13.6195 22.3065 13.2046 22.873 12.7578C23.4395 12.311 24.1336 11.9639 24.9554 11.7165C25.7772 11.4692 26.6908 11.3455 27.6961 11.3455C30.4248 11.3455 32.619 12.2511 34.2786 14.0623C35.9381 15.8735 36.7679 18.5264 36.7679 22.0211Z" fill="#F8F8F8"/>
</g>
<defs>
<clipPath id="clip0_115_372">
<rect width="36.77" height="36" fill="white"/>
</clipPath>
</defs>
</svg>
