<svg width="36" height="36" viewBox="0 0 36 36" fill="none" xmlns="http://www.w3.org/2000/svg">
<path d="M30.6224 6.35986C31.4774 6.35986 32.1224 7.10986 31.7774 8.50486L27.5924 28.2299C27.2999 29.6324 26.4524 29.9699 25.2824 29.3174L15.2999 21.9449C15.2612 21.9171 15.2297 21.8805 15.2079 21.8381C15.1862 21.7957 15.1748 21.7488 15.1748 21.7011C15.1748 21.6535 15.1862 21.6065 15.2079 21.5641C15.2297 21.5217 15.2612 21.4851 15.2999 21.4574L26.8274 11.0474C27.3524 10.5824 26.7149 10.3574 26.0249 10.7774L11.5574 19.9049C11.5136 19.9335 11.4638 19.9517 11.4118 19.9582C11.3598 19.9647 11.307 19.9593 11.2574 19.9424L5.11494 17.9999C3.74994 17.6024 3.74994 16.6649 5.42244 15.9974L29.9999 6.51736C30.1949 6.42385 30.4065 6.3703 30.6224 6.35986Z" stroke="#F8F8F8" stroke-width="2" stroke-linecap="round" stroke-linejoin="round"/>
</svg>
