<svg width="142" height="36" viewBox="0 0 142 36" fill="none" xmlns="http://www.w3.org/2000/svg">
<path d="M0.984 35V1.4H8.76V28.664H25.608V35H0.984ZM45.7571 35.576C43.1011 35.576 40.6371 35.144 38.3651 34.28C36.1251 33.416 34.1731 32.2 32.5091 30.632C30.8771 29.064 29.5971 27.224 28.6691 25.112C27.7731 23 27.3251 20.696 27.3251 18.2C27.3251 15.704 27.7731 13.4 28.6691 11.288C29.5971 9.176 30.8931 7.336 32.5571 5.768C34.2211 4.2 36.1731 2.984 38.4131 2.12C40.6531 1.256 43.0851 0.823999 45.7091 0.823999C48.3651 0.823999 50.7971 1.256 53.0051 2.12C55.2451 2.984 57.1811 4.2 58.8131 5.768C60.4771 7.336 61.7731 9.176 62.7011 11.288C63.6291 13.368 64.0931 15.672 64.0931 18.2C64.0931 20.696 63.6291 23.016 62.7011 25.16C61.7731 27.272 60.4771 29.112 58.8131 30.68C57.1811 32.216 55.2451 33.416 53.0051 34.28C50.7971 35.144 48.3811 35.576 45.7571 35.576ZM45.7091 28.952C47.2131 28.952 48.5891 28.696 49.8371 28.184C51.1171 27.672 52.2371 26.936 53.1971 25.976C54.1571 25.016 54.8931 23.88 55.4051 22.568C55.9491 21.256 56.2211 19.8 56.2211 18.2C56.2211 16.6 55.9491 15.144 55.4051 13.832C54.8931 12.52 54.1571 11.384 53.1971 10.424C52.2691 9.464 51.1651 8.728 49.8851 8.216C48.6051 7.704 47.2131 7.448 45.7091 7.448C44.2051 7.448 42.8131 7.704 41.5331 8.216C40.2851 8.728 39.1811 9.464 38.2211 10.424C37.2611 11.384 36.5091 12.52 35.9651 13.832C35.4531 15.144 35.1971 16.6 35.1971 18.2C35.1971 19.768 35.4531 21.224 35.9651 22.568C36.5091 23.88 37.2451 25.016 38.1731 25.976C39.1331 26.936 40.2531 27.672 41.5331 28.184C42.8131 28.696 44.2051 28.952 45.7091 28.952ZM86.1611 35.576C83.5051 35.576 81.0571 35.16 78.8171 34.328C76.6091 33.464 74.6731 32.248 73.0091 30.68C71.3771 29.112 70.0971 27.272 69.1691 25.16C68.2731 23.048 67.8251 20.728 67.8251 18.2C67.8251 15.672 68.2731 13.352 69.1691 11.24C70.0971 9.128 71.3931 7.288 73.0571 5.72C74.7211 4.152 76.6731 2.952 78.9131 2.12C81.1531 1.256 83.6171 0.823999 86.3051 0.823999C89.2811 0.823999 91.9531 1.32 94.3211 2.312C96.7211 3.304 98.7371 4.744 100.369 6.632L95.3771 11.24C94.1611 9.96 92.8331 9.016 91.3931 8.408C89.9531 7.768 88.3851 7.448 86.6891 7.448C85.0571 7.448 83.5691 7.704 82.2251 8.216C80.8811 8.728 79.7131 9.464 78.7211 10.424C77.7611 11.384 77.0091 12.52 76.4651 13.832C75.9531 15.144 75.6971 16.6 75.6971 18.2C75.6971 19.768 75.9531 21.208 76.4651 22.52C77.0091 23.832 77.7611 24.984 78.7211 25.976C79.7131 26.936 80.8651 27.672 82.1771 28.184C83.5211 28.696 84.9931 28.952 86.5931 28.952C88.1291 28.952 89.6171 28.712 91.0571 28.232C92.5291 27.72 93.9531 26.872 95.3291 25.688L99.7451 31.304C97.9211 32.68 95.7931 33.736 93.3611 34.472C90.9611 35.208 88.5611 35.576 86.1611 35.576ZM92.6411 30.296V17.672H99.7451V31.304L92.6411 30.296ZM123.288 35.576C120.632 35.576 118.168 35.144 115.896 34.28C113.656 33.416 111.704 32.2 110.04 30.632C108.408 29.064 107.128 27.224 106.2 25.112C105.304 23 104.856 20.696 104.856 18.2C104.856 15.704 105.304 13.4 106.2 11.288C107.128 9.176 108.424 7.336 110.088 5.768C111.752 4.2 113.704 2.984 115.944 2.12C118.184 1.256 120.616 0.823999 123.24 0.823999C125.896 0.823999 128.328 1.256 130.536 2.12C132.776 2.984 134.712 4.2 136.344 5.768C138.008 7.336 139.304 9.176 140.232 11.288C141.16 13.368 141.624 15.672 141.624 18.2C141.624 20.696 141.16 23.016 140.232 25.16C139.304 27.272 138.008 29.112 136.344 30.68C134.712 32.216 132.776 33.416 130.536 34.28C128.328 35.144 125.912 35.576 123.288 35.576ZM123.24 28.952C124.744 28.952 126.12 28.696 127.368 28.184C128.648 27.672 129.768 26.936 130.728 25.976C131.688 25.016 132.424 23.88 132.936 22.568C133.48 21.256 133.752 19.8 133.752 18.2C133.752 16.6 133.48 15.144 132.936 13.832C132.424 12.52 131.688 11.384 130.728 10.424C129.8 9.464 128.696 8.728 127.416 8.216C126.136 7.704 124.744 7.448 123.24 7.448C121.736 7.448 120.344 7.704 119.064 8.216C117.816 8.728 116.712 9.464 115.752 10.424C114.792 11.384 114.04 12.52 113.496 13.832C112.984 15.144 112.728 16.6 112.728 18.2C112.728 19.768 112.984 21.224 113.496 22.568C114.04 23.88 114.776 25.016 115.704 25.976C116.664 26.936 117.784 27.672 119.064 28.184C120.344 28.696 121.736 28.952 123.24 28.952Z" fill="#EB9405"/>
</svg>
